<svg xmlns="http://www.w3.org/2000/svg" viewBox="0 0 1033.41 393"><defs><style>.cls-1{fill:#fff;}</style></defs><title>signwell-logo</title><g id="Layer_2" data-name="Layer 2"><g id="Calque_1" data-name="Calque 1"><path class="cls-1" d="M62,297c47,0,92-35,92-77,0-55-101-78-101-127,0-37,46-69,81-69,18,0,26,10,26,23s-11,23-22,31c-15,11,5,22,26,7a48.85,48.85,0,0,0,21-40c0-29-20-45-51-45C82,0,22,44,22,97c0,62,101,84,101,127,0,30-33,47-60,47-18,0-33-8-33-22,0-7,3-14,7-20,11-17-5-27-21-16-8,6-16,21-16,35C0,281,29,297,62,297Zm919-22c18,0,38-9,49-24,7-10,3-27-10-16-12,10-24,17-37,17-51,0-29-191,6-191,20,0,12,87-37,131l2,21c74-39,96-167,36-167-45,0-62,57-64,121C924,227,940,275,981,275Zm-116,0c41,0,66-42,77-54s4-42-7-22-40,49-65,49c-52,0-28-187,7-187,20,0,11,87-38,131l2,21c74-39,97-167,37-167-44,0-62,59-65,123C811,220,823,275,865,275Zm-116,0c41,0,67-36,73-55,5-15,3-47-3-28-8,25-34,56-63,57-46,2-27-97,3-99,19-1,2,56-34,56l1,13c69,14,93-85,34-85C685,134,670,275,749,275Zm-45-60-3-15c-4,0-20-9-27-21l-9,1C669,202,689,212,704,215Zm-86,60c71,0,79-151,80-179,0-14-28-10-29,12-3,77-26,146-49,146-17,0-10-65,3-123,3-12-27-13-29,2-13,83-28,121-43,121-24,0-7-103,8-154,4-14-26-16-30,1-16,67-20,113-19,134s15,40,35,40c40,0,43-54,47-64h-1l-3-3-4-3C577,245,589,275,618,275Zm-139-4c25,0,38-27,45-65l-12,7c-5,24-14,37-23,37-7,0-9-8-9-18s2-24,4-42c4-32,3-49-20-49-29,0-51,50-49,74l6-20c1-7,6-25,7-42s-29-10-30-3-11,90-14,107c-3,20,20,17,27,11,2-20,18-102,40-102C474,166,424,271,479,271Zm-140,8c33-35,54-86,69-118l-10-11c-3,14-25,64-59,109Zm-47-24c-27,0-22-102,16-102C338,153,318,255,292,255ZM207,132c12,0,22-9,22-22,0-12-8-21-20-21s-22,9-22,21C187,123,195,132,207,132Zm78,143c37,0,45-48,48-70s8-70-30-70C236,135,225,275,285,275Zm-7,118c25,0,53-25,65-105,14-95,19-125,20-135s-23-10-28,2-15,94-16,105c-4,46-22,112-40,112-5,0-8-4-7-11,2-17,31-51,60-87,4-5,13-35,18-40l-10,13c-39,41-82,83-87,115C250,380,260,393,278,393ZM209,275c27,0,39-30,56-80l-17,5c-7,31-19,53-31,53-16,0-6-60,1-92,4-19-27-17-30-2C177,216,165,275,209,275Z"/></g></g></svg>